<?xml version="1.0" encoding="UTF-8"?>
<svg id="Layer_1" data-name="Layer 1" xmlns="http://www.w3.org/2000/svg" viewBox="0 0 87.7 84.4">
  <defs>
    <style>
      .cls-1 {
        fill: #5e471b;
        stroke-width: 0px;
      }
    </style>
  </defs>
  <path class="cls-1" d="M2.43,55.66s1.22-7.86,7.76-9.1c1.21-.23,5.84-.62,8.11.29,1.77.71,3.93,2.39,6.02,6.13,0,0,4.61,2.96,7.9-.99,0,0-1.32-5.1,0-6.58,0,0-5.92,2.8-11.02,0,0,0-6.91-5.26-15.3-1.65,0,0-2.98,3.62-3.46,5.92,0,0-4.47-7.05-1.28-10.43.91-.97,6.43-1.06,8.73-.21,5.09,1.88,14.02,4.57,18.89,2.41l.33-2.63s-12.67.82-15.63-4.94c-2.96-5.76-.99-15.96-.99-15.96,0,0,.16-2.96-2.14-3.78,0,0,14.97-.16,15.79,5.76.82,5.92-1.15,12.01-1.15,12.01,0,0-1.65,5.76,5.1,4.28l3.95-2.96s-5.43-1.65-5.59-16.45c0,0-1.28-7.73-11.42-6.25,0,0,3.69-9.87,10.93-2.8,0,0,3.46,3.29,3.46,9.71s2.63,9.05,2.63,9.05c0,0,1.65,2.8,5.59,1.81,0,0-8.39-9.38-2.47-18.76,0,0,1.97-4.78,11.02-4.36,0,0,3.95-1.07,4.11-5.18,4.57,5.07,6.06,10.83,3.89,14.19-.44.68-1.2,1.53-2.6,2.22-.98.42-2.54,1.08-4.5,1.78-4.63,1.66-5.97,1.62-7.08,3.06-1.11,1.45-1.73,4.04-.39,5.99,1.49,2.16,4.38,2.06,4.59,2.05,0,0,.66-6.75,5.1-8.06s8.88-7.57,8.88-7.57c0,0,.99-7.57-2.14-10.37,0,0,8.72-1.48,8.72,6.42,0,0,.33,2.63-4.61,6.42-4.94,3.78-13.16,8.56-10.53,13.49l2.3,3.13c.26-.93,2.81-9.51,9.38-11.68,2.52-.83,4.85-.5,4.85-.5,3.34.47,5.48,2.52,6.23,3.3,2.91,3.41,5.14,4.06,6.69,3.97,0,0,4.77-1.34,4.77-1.34,0,0-2.14,12.83-11.68,11.19-9.54-1.65-10.53-6.58-10.53-6.58-1.42-1.04-3.24-1.25-4.74-.54-1.63.77-2.2,2.31-2.32,2.64.42.86.84,1.72,1.26,2.58,3.29.91,6.07,1.59,8.09,2.07,0,0,14.15,2.96,14.15,2.96,0,0,6.72-1.93,5.76-6.42,0,0,4.94,8.88-1.32,10.69s-14.81-3.13-14.81-3.13c0,0-11.68-4.11-11.19,2.3,0,0,13.82-.16,16.45,6.09,1,2.38,1.56,6.16,1.26,9.41-.13,1.42-.39,2.6-.6,3.42-.64.37-.93.79-1.06,1.08-.42.94-.31,2.56,2.21,5.17,0,0-14.15,2.47-14.48-5.59-.33-8.06.66-13.82.66-13.82,0,0,.66-4.44-5.76-1.81l-2.8,2.63s4.94,1.32,4.77,13.66c0,0,0,7.73,10.86,8.39,0,0,6.09-.33-.66,3.78-6.75,4.11-11.52-3.13-11.52-3.13,0,0,0-17.6-5.76-18.59l-3.95.16s10.2,13.16.49,21.22c0,0-2.8,2.3-9.87,2.8s-2.47,5.26-2.47,5.26c0,0-11.02-5.43-2.8-16.95,0,0,14.15-3.62,13.16-6.75-.99-3.13.82-5.59-5.59-5.76,0,0,.16,6.09-9.54,11.19s-1.81,13.98-1.81,13.98c0,0-10.2,2.3-9.38-5.76.82-8.06,13.98-13.66,13.98-13.66,0,0,2.3-5.43.82-7.9-1.48-2.47.33,4.94-11.19,9.87-11.52,4.94-14.97-5.59-14.97-5.59,0,0-2.32-4.51-6.59-1.43Z"/>
</svg>